# xmcd CD database file
#
# Track frame offsets:
#	182
#	9287
#	41785
#	70272
#	98077
#	129287
#	151220
#
# Disc length: 2573 seconds
#
# Revision: 0
# Processed by: cddbd v1.5.1PL0 Copyright (c) Steve Scherf et al.
# Submitted via: CDex 1.51
#
DISCID=4c0a0b07
DTITLE=Steve Grossman - Some Shapes to Come
DYEAR=1974
DGENRE=Jazz
TTITLE0=WBAI
TTITLE1=Haresah
TTITLE2=Zulu Stomp
TTITLE3=Extemporaneous Combustion
TTITLE4=Alodian Mode
TTITLE5=Pressure Point
TTITLE6=The Sixth Sence
EXTD=YEAR: 1974
EXTT0=
EXTT1=
EXTT2=
EXTT3=
EXTT4=
EXTT5=
EXTT6=
PLAYORDER=
